<svg width="48" height="48" viewBox="0 0 48 48" fill="none" xmlns="http://www.w3.org/2000/svg">
<g clip-path="url(#clip0_8_15978)">
<path d="M15 26L24 44" stroke="#2E1066" stroke-width="2" stroke-linecap="round" stroke-linejoin="round"/>
<path d="M15 26L24 44" stroke="#410F9E" stroke-width="2" stroke-linecap="round" stroke-linejoin="round"/>
<path d="M15 26L24 44" stroke="#453888" stroke-width="2" stroke-linecap="round" stroke-linejoin="round"/>
<path d="M15 26L24 44" stroke="#5946D7" stroke-width="2" stroke-linecap="round" stroke-linejoin="round"/>
<path fill-rule="evenodd" clip-rule="evenodd" d="M42.5781 22.946L34.9501 38.2C34.4761 39.15 33.3361 39.574 32.3721 39.132C29.6561 37.886 26.7261 37.282 23.7961 37.28C20.8661 37.282 17.9361 37.886 15.2201 39.132C14.2541 39.574 13.1141 39.15 12.6401 38.2L5.01411 22.946C4.53011 21.98 4.89011 20.774 5.85011 20.282C11.4701 17.4 17.6301 16.002 23.7941 16C29.9581 16.002 36.1181 17.4 41.7401 20.282C42.7021 20.776 43.0601 21.98 42.5781 22.946Z" stroke="#2E1066" stroke-width="2" stroke-linecap="round" stroke-linejoin="round"/>
<path fill-rule="evenodd" clip-rule="evenodd" d="M42.5781 22.946L34.9501 38.2C34.4761 39.15 33.3361 39.574 32.3721 39.132C29.6561 37.886 26.7261 37.282 23.7961 37.28C20.8661 37.282 17.9361 37.886 15.2201 39.132C14.2541 39.574 13.1141 39.15 12.6401 38.2L5.01411 22.946C4.53011 21.98 4.89011 20.774 5.85011 20.282C11.4701 17.4 17.6301 16.002 23.7941 16C29.9581 16.002 36.1181 17.4 41.7401 20.282C42.7021 20.776 43.0601 21.98 42.5781 22.946Z" stroke="#410F9E" stroke-width="2" stroke-linecap="round" stroke-linejoin="round"/>
<path fill-rule="evenodd" clip-rule="evenodd" d="M42.5781 22.946L34.9501 38.2C34.4761 39.15 33.3361 39.574 32.3721 39.132C29.6561 37.886 26.7261 37.282 23.7961 37.28C20.8661 37.282 17.9361 37.886 15.2201 39.132C14.2541 39.574 13.1141 39.15 12.6401 38.2L5.01411 22.946C4.53011 21.98 4.89011 20.774 5.85011 20.282C11.4701 17.4 17.6301 16.002 23.7941 16C29.9581 16.002 36.1181 17.4 41.7401 20.282C42.7021 20.776 43.0601 21.98 42.5781 22.946Z" stroke="#453888" stroke-width="2" stroke-linecap="round" stroke-linejoin="round"/>
<path fill-rule="evenodd" clip-rule="evenodd" d="M42.5781 22.946L34.9501 38.2C34.4761 39.15 33.3361 39.574 32.3721 39.132C29.6561 37.886 26.7261 37.282 23.7961 37.28C20.8661 37.282 17.9361 37.886 15.2201 39.132C14.2541 39.574 13.1141 39.15 12.6401 38.2L5.01411 22.946C4.53011 21.98 4.89011 20.774 5.85011 20.282C11.4701 17.4 17.6301 16.002 23.7941 16C29.9581 16.002 36.1181 17.4 41.7401 20.282C42.7021 20.776 43.0601 21.98 42.5781 22.946Z" stroke="#5946D7" stroke-width="2" stroke-linecap="round" stroke-linejoin="round"/>
<path d="M24.0001 9.99993C24.0001 9.66793 23.9701 9.33393 23.9101 9.00593" stroke="#2E1066" stroke-width="2" stroke-linecap="round" stroke-linejoin="round"/>
<path d="M24.0001 9.99993C24.0001 9.66793 23.9701 9.33393 23.9101 9.00593" stroke="#410F9E" stroke-width="2" stroke-linecap="round" stroke-linejoin="round"/>
<path d="M24.0001 9.99993C24.0001 9.66793 23.9701 9.33393 23.9101 9.00593" stroke="#453888" stroke-width="2" stroke-linecap="round" stroke-linejoin="round"/>
<path d="M24.0001 9.99993C24.0001 9.66793 23.9701 9.33393 23.9101 9.00593" stroke="#5946D7" stroke-width="2" stroke-linecap="round" stroke-linejoin="round"/>
<path d="M24.0899 9.00593C24.0299 9.33393 23.9999 9.66793 23.9999 9.99993" stroke="#2E1066" stroke-width="2" stroke-linecap="round" stroke-linejoin="round"/>
<path d="M24.0899 9.00593C24.0299 9.33393 23.9999 9.66793 23.9999 9.99993" stroke="#410F9E" stroke-width="2" stroke-linecap="round" stroke-linejoin="round"/>
<path d="M24.0899 9.00593C24.0299 9.33393 23.9999 9.66793 23.9999 9.99993" stroke="#453888" stroke-width="2" stroke-linecap="round" stroke-linejoin="round"/>
<path d="M24.0899 9.00593C24.0299 9.33393 23.9999 9.66793 23.9999 9.99993" stroke="#5946D7" stroke-width="2" stroke-linecap="round" stroke-linejoin="round"/>
<path d="M35.1743 5.7582C34.9263 5.5302 34.6623 5.3242 34.3863 5.1422" stroke="#2E1066" stroke-width="2" stroke-linecap="round" stroke-linejoin="round"/>
<path d="M35.1743 5.7582C34.9263 5.5302 34.6623 5.3242 34.3863 5.1422" stroke="#410F9E" stroke-width="2" stroke-linecap="round" stroke-linejoin="round"/>
<path d="M35.1743 5.7582C34.9263 5.5302 34.6623 5.3242 34.3863 5.1422" stroke="#453888" stroke-width="2" stroke-linecap="round" stroke-linejoin="round"/>
<path d="M35.1743 5.7582C34.9263 5.5302 34.6623 5.3242 34.3863 5.1422" stroke="#5946D7" stroke-width="2" stroke-linecap="round" stroke-linejoin="round"/>
<path d="M28.7623 4.22585C28.3983 4.31985 28.0503 4.45585 27.7103 4.61985" stroke="#2E1066" stroke-width="2" stroke-linecap="round" stroke-linejoin="round"/>
<path d="M28.7623 4.22585C28.3983 4.31985 28.0503 4.45585 27.7103 4.61985" stroke="#410F9E" stroke-width="2" stroke-linecap="round" stroke-linejoin="round"/>
<path d="M28.7623 4.22585C28.3983 4.31985 28.0503 4.45585 27.7103 4.61985" stroke="#453888" stroke-width="2" stroke-linecap="round" stroke-linejoin="round"/>
<path d="M28.7623 4.22585C28.3983 4.31985 28.0503 4.45585 27.7103 4.61985" stroke="#5946D7" stroke-width="2" stroke-linecap="round" stroke-linejoin="round"/>
<path d="M13.6142 5.1422C13.3382 5.3242 13.0742 5.5302 12.8262 5.7582" stroke="#2E1066" stroke-width="2" stroke-linecap="round" stroke-linejoin="round"/>
<path d="M13.6142 5.1422C13.3382 5.3242 13.0742 5.5302 12.8262 5.7582" stroke="#410F9E" stroke-width="2" stroke-linecap="round" stroke-linejoin="round"/>
<path d="M13.6142 5.1422C13.3382 5.3242 13.0742 5.5302 12.8262 5.7582" stroke="#453888" stroke-width="2" stroke-linecap="round" stroke-linejoin="round"/>
<path d="M13.6142 5.1422C13.3382 5.3242 13.0742 5.5302 12.8262 5.7582" stroke="#5946D7" stroke-width="2" stroke-linecap="round" stroke-linejoin="round"/>
<path d="M19.2382 4.22585C19.6022 4.31985 19.9502 4.45585 20.2902 4.61985" stroke="#2E1066" stroke-width="2" stroke-linecap="round" stroke-linejoin="round"/>
<path d="M19.2382 4.22585C19.6022 4.31985 19.9502 4.45585 20.2902 4.61985" stroke="#410F9E" stroke-width="2" stroke-linecap="round" stroke-linejoin="round"/>
<path d="M19.2382 4.22585C19.6022 4.31985 19.9502 4.45585 20.2902 4.61985" stroke="#453888" stroke-width="2" stroke-linecap="round" stroke-linejoin="round"/>
<path d="M19.2382 4.22585C19.6022 4.31985 19.9502 4.45585 20.2902 4.61985" stroke="#5946D7" stroke-width="2" stroke-linecap="round" stroke-linejoin="round"/>
<path d="M24 26V24" stroke="#2E1066" stroke-width="2" stroke-linecap="round" stroke-linejoin="round"/>
<path d="M24 26V24" stroke="#410F9E" stroke-width="2" stroke-linecap="round" stroke-linejoin="round"/>
<path d="M24 26V24" stroke="#453888" stroke-width="2" stroke-linecap="round" stroke-linejoin="round"/>
<path d="M24 26V24" stroke="#5946D7" stroke-width="2" stroke-linecap="round" stroke-linejoin="round"/>
<path d="M24 16V18" stroke="#2E1066" stroke-width="2" stroke-linecap="round" stroke-linejoin="round"/>
<path d="M24 16V18" stroke="#410F9E" stroke-width="2" stroke-linecap="round" stroke-linejoin="round"/>
<path d="M24 16V18" stroke="#453888" stroke-width="2" stroke-linecap="round" stroke-linejoin="round"/>
<path d="M24 16V18" stroke="#5946D7" stroke-width="2" stroke-linecap="round" stroke-linejoin="round"/>
</g>
<defs>
<clipPath id="clip0_8_15978">
<rect width="48" height="48" fill="white"/>
</clipPath>
</defs>
</svg>
