<svg width="48" height="48" viewBox="0 0 48 48" fill="none" xmlns="http://www.w3.org/2000/svg">
<g clip-path="url(#clip0_8_15634)">
<path d="M17.2192 13.9965H24.7784" stroke="#2E1066" stroke-width="2" stroke-linecap="round" stroke-linejoin="round"/>
<path d="M17.2192 13.9965H24.7784" stroke="#410F9E" stroke-width="2" stroke-linecap="round" stroke-linejoin="round"/>
<path d="M17.2192 13.9965H24.7784" stroke="#453888" stroke-width="2" stroke-linecap="round" stroke-linejoin="round"/>
<path d="M17.2192 13.9965H24.7784" stroke="#5946D7" stroke-width="2" stroke-linecap="round" stroke-linejoin="round"/>
<path d="M17.9976 24H11.9951V38.0058" stroke="#2E1066" stroke-width="2" stroke-linecap="round" stroke-linejoin="round"/>
<path d="M17.9976 24H11.9951V38.0058" stroke="#410F9E" stroke-width="2" stroke-linecap="round" stroke-linejoin="round"/>
<path d="M17.9976 24H11.9951V38.0058" stroke="#453888" stroke-width="2" stroke-linecap="round" stroke-linejoin="round"/>
<path d="M17.9976 24H11.9951V38.0058" stroke="#5946D7" stroke-width="2" stroke-linecap="round" stroke-linejoin="round"/>
<path d="M11.995 38.0059H3.9917V15.1204C3.9917 13.7477 4.7362 12.483 5.93651 11.817L19.164 4.46795C20.3057 3.8336 21.6939 3.8336 22.8355 4.46795L36.0631 11.817C37.2623 12.4838 38.0059 13.7482 38.0059 15.1204V17.9976" stroke="#2E1066" stroke-width="2" stroke-linecap="round" stroke-linejoin="round"/>
<path d="M11.995 38.0059H3.9917V15.1204C3.9917 13.7477 4.7362 12.483 5.93651 11.817L19.164 4.46795C20.3057 3.8336 21.6939 3.8336 22.8355 4.46795L36.0631 11.817C37.2623 12.4838 38.0059 13.7482 38.0059 15.1204V17.9976" stroke="#410F9E" stroke-width="2" stroke-linecap="round" stroke-linejoin="round"/>
<path d="M11.995 38.0059H3.9917V15.1204C3.9917 13.7477 4.7362 12.483 5.93651 11.817L19.164 4.46795C20.3057 3.8336 21.6939 3.8336 22.8355 4.46795L36.0631 11.817C37.2623 12.4838 38.0059 13.7482 38.0059 15.1204V17.9976" stroke="#453888" stroke-width="2" stroke-linecap="round" stroke-linejoin="round"/>
<path d="M11.995 38.0059H3.9917V15.1204C3.9917 13.7477 4.7362 12.483 5.93651 11.817L19.164 4.46795C20.3057 3.8336 21.6939 3.8336 22.8355 4.46795L36.0631 11.817C37.2623 12.4838 38.0059 13.7482 38.0059 15.1204V17.9976" stroke="#5946D7" stroke-width="2" stroke-linecap="round" stroke-linejoin="round"/>
<path d="M44.0085 35.6052C44.0085 33.3951 42.2169 31.6035 40.0069 31.6035H24.0002C21.7901 31.6035 19.9985 33.3951 19.9985 35.6052" stroke="#2E1066" stroke-width="2" stroke-linecap="round" stroke-linejoin="round"/>
<path d="M44.0085 35.6052C44.0085 33.3951 42.2169 31.6035 40.0069 31.6035H24.0002C21.7901 31.6035 19.9985 33.3951 19.9985 35.6052" stroke="#410F9E" stroke-width="2" stroke-linecap="round" stroke-linejoin="round"/>
<path d="M44.0085 35.6052C44.0085 33.3951 42.2169 31.6035 40.0069 31.6035H24.0002C21.7901 31.6035 19.9985 33.3951 19.9985 35.6052" stroke="#453888" stroke-width="2" stroke-linecap="round" stroke-linejoin="round"/>
<path d="M44.0085 35.6052C44.0085 33.3951 42.2169 31.6035 40.0069 31.6035H24.0002C21.7901 31.6035 19.9985 33.3951 19.9985 35.6052" stroke="#5946D7" stroke-width="2" stroke-linecap="round" stroke-linejoin="round"/>
<path d="M19.9985 35.6055V42.0081C19.9985 43.1132 20.8943 44.009 21.9994 44.009H23.9802C25.0852 44.009 25.981 43.1132 25.981 42.0081V40.6856H38.026V42.0081C38.026 43.1132 38.9218 44.009 40.0269 44.009H42.0077C43.1127 44.009 44.0085 43.1132 44.0085 42.0081V35.6055" stroke="#2E1066" stroke-width="2" stroke-linecap="round" stroke-linejoin="round"/>
<path d="M19.9985 35.6055V42.0081C19.9985 43.1132 20.8943 44.009 21.9994 44.009H23.9802C25.0852 44.009 25.981 43.1132 25.981 42.0081V40.6856H38.026V42.0081C38.026 43.1132 38.9218 44.009 40.0269 44.009H42.0077C43.1127 44.009 44.0085 43.1132 44.0085 42.0081V35.6055" stroke="#410F9E" stroke-width="2" stroke-linecap="round" stroke-linejoin="round"/>
<path d="M19.9985 35.6055V42.0081C19.9985 43.1132 20.8943 44.009 21.9994 44.009H23.9802C25.0852 44.009 25.981 43.1132 25.981 42.0081V40.6856H38.026V42.0081C38.026 43.1132 38.9218 44.009 40.0269 44.009H42.0077C43.1127 44.009 44.0085 43.1132 44.0085 42.0081V35.6055" stroke="#453888" stroke-width="2" stroke-linecap="round" stroke-linejoin="round"/>
<path d="M19.9985 35.6055V42.0081C19.9985 43.1132 20.8943 44.009 21.9994 44.009H23.9802C25.0852 44.009 25.981 43.1132 25.981 42.0081V40.6856H38.026V42.0081C38.026 43.1132 38.9218 44.009 40.0269 44.009H42.0077C43.1127 44.009 44.0085 43.1132 44.0085 42.0081V35.6055" stroke="#5946D7" stroke-width="2" stroke-linecap="round" stroke-linejoin="round"/>
<path d="M27.4756 36.2055H24.4844" stroke="#2E1066" stroke-width="2" stroke-linecap="round" stroke-linejoin="round"/>
<path d="M27.4756 36.2055H24.4844" stroke="#410F9E" stroke-width="2" stroke-linecap="round" stroke-linejoin="round"/>
<path d="M27.4756 36.2055H24.4844" stroke="#453888" stroke-width="2" stroke-linecap="round" stroke-linejoin="round"/>
<path d="M27.4756 36.2055H24.4844" stroke="#5946D7" stroke-width="2" stroke-linecap="round" stroke-linejoin="round"/>
<path d="M39.5225 36.2055H36.5312" stroke="#2E1066" stroke-width="2" stroke-linecap="round" stroke-linejoin="round"/>
<path d="M39.5225 36.2055H36.5312" stroke="#410F9E" stroke-width="2" stroke-linecap="round" stroke-linejoin="round"/>
<path d="M39.5225 36.2055H36.5312" stroke="#453888" stroke-width="2" stroke-linecap="round" stroke-linejoin="round"/>
<path d="M39.5225 36.2055H36.5312" stroke="#5946D7" stroke-width="2" stroke-linecap="round" stroke-linejoin="round"/>
<path d="M41.0171 31.4772L44.0083 29.9826" stroke="#2E1066" stroke-width="2" stroke-linecap="round" stroke-linejoin="round"/>
<path d="M41.0171 31.4772L44.0083 29.9826" stroke="#410F9E" stroke-width="2" stroke-linecap="round" stroke-linejoin="round"/>
<path d="M41.0171 31.4772L44.0083 29.9826" stroke="#453888" stroke-width="2" stroke-linecap="round" stroke-linejoin="round"/>
<path d="M41.0171 31.4772L44.0083 29.9826" stroke="#5946D7" stroke-width="2" stroke-linecap="round" stroke-linejoin="round"/>
<path d="M22.9998 31.4772L19.9985 29.9826" stroke="#2E1066" stroke-width="2" stroke-linecap="round" stroke-linejoin="round"/>
<path d="M22.9998 31.4772L19.9985 29.9826" stroke="#410F9E" stroke-width="2" stroke-linecap="round" stroke-linejoin="round"/>
<path d="M22.9998 31.4772L19.9985 29.9826" stroke="#453888" stroke-width="2" stroke-linecap="round" stroke-linejoin="round"/>
<path d="M22.9998 31.4772L19.9985 29.9826" stroke="#5946D7" stroke-width="2" stroke-linecap="round" stroke-linejoin="round"/>
<path d="M27.1373 24C25.7485 24.0035 24.5435 24.9594 24.2241 26.311L22.9556 31.7332L24.2241 26.311C24.5435 24.9594 25.7485 24.0035 27.1373 24H36.8694C38.2582 24.0035 39.4632 24.9594 39.7826 26.311L41.0511 31.7332" stroke="#2E1066" stroke-width="2" stroke-linecap="round" stroke-linejoin="round"/>
<path d="M27.1373 24C25.7485 24.0035 24.5435 24.9594 24.2241 26.311L22.9556 31.7332L24.2241 26.311C24.5435 24.9594 25.7485 24.0035 27.1373 24H36.8694C38.2582 24.0035 39.4632 24.9594 39.7826 26.311L41.0511 31.7332" stroke="#410F9E" stroke-width="2" stroke-linecap="round" stroke-linejoin="round"/>
<path d="M27.1373 24C25.7485 24.0035 24.5435 24.9594 24.2241 26.311L22.9556 31.7332L24.2241 26.311C24.5435 24.9594 25.7485 24.0035 27.1373 24H36.8694C38.2582 24.0035 39.4632 24.9594 39.7826 26.311L41.0511 31.7332" stroke="#453888" stroke-width="2" stroke-linecap="round" stroke-linejoin="round"/>
<path d="M27.1373 24C25.7485 24.0035 24.5435 24.9594 24.2241 26.311L22.9556 31.7332L24.2241 26.311C24.5435 24.9594 25.7485 24.0035 27.1373 24H36.8694C38.2582 24.0035 39.4632 24.9594 39.7826 26.311L41.0511 31.7332" stroke="#5946D7" stroke-width="2" stroke-linecap="round" stroke-linejoin="round"/>
</g>
<defs>
<clipPath id="clip0_8_15634">
<rect width="48" height="48" fill="white"/>
</clipPath>
</defs>
</svg>
