<svg width="48" height="48" viewBox="0 0 48 48" fill="none" xmlns="http://www.w3.org/2000/svg">
<path fill-rule="evenodd" clip-rule="evenodd" d="M43.942 23.942C43.942 12.928 35.014 4 24 4V11.976C30.608 11.976 35.966 17.332 35.966 23.942H43.942Z" stroke="#2E1066" stroke-width="2" stroke-linecap="round" stroke-linejoin="round"/>
<path fill-rule="evenodd" clip-rule="evenodd" d="M43.942 23.942C43.942 12.928 35.014 4 24 4V11.976C30.608 11.976 35.966 17.332 35.966 23.942H43.942Z" stroke="#410F9E" stroke-width="2" stroke-linecap="round" stroke-linejoin="round"/>
<path fill-rule="evenodd" clip-rule="evenodd" d="M43.942 23.942C43.942 12.928 35.014 4 24 4V11.976C30.608 11.976 35.966 17.332 35.966 23.942H43.942Z" stroke="#453888" stroke-width="2" stroke-linecap="round" stroke-linejoin="round"/>
<path fill-rule="evenodd" clip-rule="evenodd" d="M43.942 23.942C43.942 12.928 35.014 4 24 4V11.976C30.608 11.976 35.966 17.332 35.966 23.942H43.942Z" stroke="#5946D7" stroke-width="2" stroke-linecap="round" stroke-linejoin="round"/>
<path d="M39.8419 23.9416V25.0496C39.8419 34.4116 32.2539 41.9996 22.8919 41.9996C13.5299 41.9996 5.94189 34.4116 5.94189 25.0496C5.94189 15.6876 13.5299 8.09961 22.8919 8.09961H23.9999" stroke="#2E1066" stroke-width="2" stroke-linecap="round" stroke-linejoin="round"/>
<path d="M39.8419 23.9416V25.0496C39.8419 34.4116 32.2539 41.9996 22.8919 41.9996C13.5299 41.9996 5.94189 34.4116 5.94189 25.0496C5.94189 15.6876 13.5299 8.09961 22.8919 8.09961H23.9999" stroke="#410F9E" stroke-width="2" stroke-linecap="round" stroke-linejoin="round"/>
<path d="M39.8419 23.9416V25.0496C39.8419 34.4116 32.2539 41.9996 22.8919 41.9996C13.5299 41.9996 5.94189 34.4116 5.94189 25.0496C5.94189 15.6876 13.5299 8.09961 22.8919 8.09961H23.9999" stroke="#453888" stroke-width="2" stroke-linecap="round" stroke-linejoin="round"/>
<path d="M39.8419 23.9416V25.0496C39.8419 34.4116 32.2539 41.9996 22.8919 41.9996C13.5299 41.9996 5.94189 34.4116 5.94189 25.0496C5.94189 15.6876 13.5299 8.09961 22.8919 8.09961H23.9999" stroke="#5946D7" stroke-width="2" stroke-linecap="round" stroke-linejoin="round"/>
<path d="M27.3568 20.5857C29.8226 23.0514 29.8226 27.0492 27.3568 29.515C24.891 31.9808 20.8932 31.9808 18.4275 29.515C15.9617 27.0492 15.9617 23.0514 18.4275 20.5857C20.8932 18.1199 24.891 18.1199 27.3568 20.5857" stroke="#2E1066" stroke-width="2" stroke-linecap="round" stroke-linejoin="round"/>
<path d="M27.3568 20.5857C29.8226 23.0514 29.8226 27.0492 27.3568 29.515C24.891 31.9808 20.8932 31.9808 18.4275 29.515C15.9617 27.0492 15.9617 23.0514 18.4275 20.5857C20.8932 18.1199 24.891 18.1199 27.3568 20.5857" stroke="#410F9E" stroke-width="2" stroke-linecap="round" stroke-linejoin="round"/>
<path d="M27.3568 20.5857C29.8226 23.0514 29.8226 27.0492 27.3568 29.515C24.891 31.9808 20.8932 31.9808 18.4275 29.515C15.9617 27.0492 15.9617 23.0514 18.4275 20.5857C20.8932 18.1199 24.891 18.1199 27.3568 20.5857" stroke="#453888" stroke-width="2" stroke-linecap="round" stroke-linejoin="round"/>
<path d="M27.3568 20.5857C29.8226 23.0514 29.8226 27.0492 27.3568 29.515C24.891 31.9808 20.8932 31.9808 18.4275 29.515C15.9617 27.0492 15.9617 23.0514 18.4275 20.5857C20.8932 18.1199 24.891 18.1199 27.3568 20.5857" stroke="#5946D7" stroke-width="2" stroke-linecap="round" stroke-linejoin="round"/>
</svg>
