<svg width="48" height="48" viewBox="0 0 48 48" fill="none" xmlns="http://www.w3.org/2000/svg">
<g clip-path="url(#clip0_8_17049)">
<path fill-rule="evenodd" clip-rule="evenodd" d="M7.73595 24.7085L10.564 21.8805C12.126 20.3185 14.658 20.3185 16.22 21.8805L26.12 31.7805C27.682 33.3425 27.682 35.8745 26.12 37.4365L23.292 40.2645C21.73 41.8265 19.198 41.8265 17.636 40.2645L7.73595 30.3645C6.17395 28.8025 6.17395 26.2705 7.73595 24.7085V24.7085Z" stroke="#2E1066" stroke-width="2" stroke-linecap="round" stroke-linejoin="round"/>
<path fill-rule="evenodd" clip-rule="evenodd" d="M7.73595 24.7085L10.564 21.8805C12.126 20.3185 14.658 20.3185 16.22 21.8805L26.12 31.7805C27.682 33.3425 27.682 35.8745 26.12 37.4365L23.292 40.2645C21.73 41.8265 19.198 41.8265 17.636 40.2645L7.73595 30.3645C6.17395 28.8025 6.17395 26.2705 7.73595 24.7085V24.7085Z" stroke="#410F9E" stroke-width="2" stroke-linecap="round" stroke-linejoin="round"/>
<path fill-rule="evenodd" clip-rule="evenodd" d="M7.73595 24.7085L10.564 21.8805C12.126 20.3185 14.658 20.3185 16.22 21.8805L26.12 31.7805C27.682 33.3425 27.682 35.8745 26.12 37.4365L23.292 40.2645C21.73 41.8265 19.198 41.8265 17.636 40.2645L7.73595 30.3645C6.17395 28.8025 6.17395 26.2705 7.73595 24.7085V24.7085Z" stroke="#453888" stroke-width="2" stroke-linecap="round" stroke-linejoin="round"/>
<path fill-rule="evenodd" clip-rule="evenodd" d="M7.73595 24.7085L10.564 21.8805C12.126 20.3185 14.658 20.3185 16.22 21.8805L26.12 31.7805C27.682 33.3425 27.682 35.8745 26.12 37.4365L23.292 40.2645C21.73 41.8265 19.198 41.8265 17.636 40.2645L7.73595 30.3645C6.17395 28.8025 6.17395 26.2705 7.73595 24.7085V24.7085Z" stroke="#5946D7" stroke-width="2" stroke-linecap="round" stroke-linejoin="round"/>
<path d="M9.1399 31.7803L4.8999 36.0203" stroke="#2E1066" stroke-width="2" stroke-linecap="round" stroke-linejoin="round"/>
<path d="M9.1399 31.7803L4.8999 36.0203" stroke="#410F9E" stroke-width="2" stroke-linecap="round" stroke-linejoin="round"/>
<path d="M9.1399 31.7803L4.8999 36.0203" stroke="#453888" stroke-width="2" stroke-linecap="round" stroke-linejoin="round"/>
<path d="M9.1399 31.7803L4.8999 36.0203" stroke="#5946D7" stroke-width="2" stroke-linecap="round" stroke-linejoin="round"/>
<path d="M12.52 43.6199L16.76 39.3799" stroke="#2E1066" stroke-width="2" stroke-linecap="round" stroke-linejoin="round"/>
<path d="M12.52 43.6199L16.76 39.3799" stroke="#410F9E" stroke-width="2" stroke-linecap="round" stroke-linejoin="round"/>
<path d="M12.52 43.6199L16.76 39.3799" stroke="#453888" stroke-width="2" stroke-linecap="round" stroke-linejoin="round"/>
<path d="M12.52 43.6199L16.76 39.3799" stroke="#5946D7" stroke-width="2" stroke-linecap="round" stroke-linejoin="round"/>
<path d="M33.192 7.73579L30.364 4.90779C29.582 4.12579 28.316 4.12579 27.536 4.90779L25.294 7.14979C24.918 7.52579 24.708 8.03379 24.708 8.56379V13.3918L21.88 16.2198C21.098 17.0018 21.098 18.2678 21.88 19.0478L28.952 26.1198C29.734 26.9018 31 26.9018 31.78 26.1198L34.608 23.2918H39.436C39.966 23.2918 40.476 23.0818 40.85 22.7058L43.092 20.4638C43.874 19.6818 43.874 18.4158 43.092 17.6358L40.264 14.8078" stroke="#2E1066" stroke-width="2" stroke-linecap="round" stroke-linejoin="round"/>
<path d="M33.192 7.73579L30.364 4.90779C29.582 4.12579 28.316 4.12579 27.536 4.90779L25.294 7.14979C24.918 7.52579 24.708 8.03379 24.708 8.56379V13.3918L21.88 16.2198C21.098 17.0018 21.098 18.2678 21.88 19.0478L28.952 26.1198C29.734 26.9018 31 26.9018 31.78 26.1198L34.608 23.2918H39.436C39.966 23.2918 40.476 23.0818 40.85 22.7058L43.092 20.4638C43.874 19.6818 43.874 18.4158 43.092 17.6358L40.264 14.8078" stroke="#410F9E" stroke-width="2" stroke-linecap="round" stroke-linejoin="round"/>
<path d="M33.192 7.73579L30.364 4.90779C29.582 4.12579 28.316 4.12579 27.536 4.90779L25.294 7.14979C24.918 7.52579 24.708 8.03379 24.708 8.56379V13.3918L21.88 16.2198C21.098 17.0018 21.098 18.2678 21.88 19.0478L28.952 26.1198C29.734 26.9018 31 26.9018 31.78 26.1198L34.608 23.2918H39.436C39.966 23.2918 40.476 23.0818 40.85 22.7058L43.092 20.4638C43.874 19.6818 43.874 18.4158 43.092 17.6358L40.264 14.8078" stroke="#453888" stroke-width="2" stroke-linecap="round" stroke-linejoin="round"/>
<path d="M33.192 7.73579L30.364 4.90779C29.582 4.12579 28.316 4.12579 27.536 4.90779L25.294 7.14979C24.918 7.52579 24.708 8.03379 24.708 8.56379V13.3918L21.88 16.2198C21.098 17.0018 21.098 18.2678 21.88 19.0478L28.952 26.1198C29.734 26.9018 31 26.9018 31.78 26.1198L34.608 23.2918H39.436C39.966 23.2918 40.476 23.0818 40.85 22.7058L43.092 20.4638C43.874 19.6818 43.874 18.4158 43.092 17.6358L40.264 14.8078" stroke="#5946D7" stroke-width="2" stroke-linecap="round" stroke-linejoin="round"/>
<path d="M30.5 19.5L28.5 17.5" stroke="#2E1066" stroke-width="2" stroke-linecap="round" stroke-linejoin="round"/>
<path d="M30.5 19.5L28.5 17.5" stroke="#410F9E" stroke-width="2" stroke-linecap="round" stroke-linejoin="round"/>
<path d="M30.5 19.5L28.5 17.5" stroke="#453888" stroke-width="2" stroke-linecap="round" stroke-linejoin="round"/>
<path d="M30.5 19.5L28.5 17.5" stroke="#5946D7" stroke-width="2" stroke-linecap="round" stroke-linejoin="round"/>
<path d="M32 44V42" stroke="#2E1066" stroke-width="2" stroke-linecap="round" stroke-linejoin="round"/>
<path d="M32 44V42" stroke="#410F9E" stroke-width="2" stroke-linecap="round" stroke-linejoin="round"/>
<path d="M32 44V42" stroke="#453888" stroke-width="2" stroke-linecap="round" stroke-linejoin="round"/>
<path d="M32 44V42" stroke="#5946D7" stroke-width="2" stroke-linecap="round" stroke-linejoin="round"/>
<path d="M44 32H42" stroke="#2E1066" stroke-width="2" stroke-linecap="round" stroke-linejoin="round"/>
<path d="M44 32H42" stroke="#410F9E" stroke-width="2" stroke-linecap="round" stroke-linejoin="round"/>
<path d="M44 32H42" stroke="#453888" stroke-width="2" stroke-linecap="round" stroke-linejoin="round"/>
<path d="M44 32H42" stroke="#5946D7" stroke-width="2" stroke-linecap="round" stroke-linejoin="round"/>
<path d="M42 42L40 40" stroke="#2E1066" stroke-width="2" stroke-linecap="round" stroke-linejoin="round"/>
<path d="M42 42L40 40" stroke="#410F9E" stroke-width="2" stroke-linecap="round" stroke-linejoin="round"/>
<path d="M42 42L40 40" stroke="#453888" stroke-width="2" stroke-linecap="round" stroke-linejoin="round"/>
<path d="M42 42L40 40" stroke="#5946D7" stroke-width="2" stroke-linecap="round" stroke-linejoin="round"/>
<path d="M16 4V6" stroke="#2E1066" stroke-width="2" stroke-linecap="round" stroke-linejoin="round"/>
<path d="M16 4V6" stroke="#410F9E" stroke-width="2" stroke-linecap="round" stroke-linejoin="round"/>
<path d="M16 4V6" stroke="#453888" stroke-width="2" stroke-linecap="round" stroke-linejoin="round"/>
<path d="M16 4V6" stroke="#5946D7" stroke-width="2" stroke-linecap="round" stroke-linejoin="round"/>
<path d="M4 16H6" stroke="#2E1066" stroke-width="2" stroke-linecap="round" stroke-linejoin="round"/>
<path d="M4 16H6" stroke="#410F9E" stroke-width="2" stroke-linecap="round" stroke-linejoin="round"/>
<path d="M4 16H6" stroke="#453888" stroke-width="2" stroke-linecap="round" stroke-linejoin="round"/>
<path d="M4 16H6" stroke="#5946D7" stroke-width="2" stroke-linecap="round" stroke-linejoin="round"/>
<path d="M6 6L8 8" stroke="#2E1066" stroke-width="2" stroke-linecap="round" stroke-linejoin="round"/>
<path d="M6 6L8 8" stroke="#410F9E" stroke-width="2" stroke-linecap="round" stroke-linejoin="round"/>
<path d="M6 6L8 8" stroke="#453888" stroke-width="2" stroke-linecap="round" stroke-linejoin="round"/>
<path d="M6 6L8 8" stroke="#5946D7" stroke-width="2" stroke-linecap="round" stroke-linejoin="round"/>
<path d="M15 29L19 33" stroke="#2E1066" stroke-width="2" stroke-linecap="round" stroke-linejoin="round"/>
<path d="M15 29L19 33" stroke="#410F9E" stroke-width="2" stroke-linecap="round" stroke-linejoin="round"/>
<path d="M15 29L19 33" stroke="#453888" stroke-width="2" stroke-linecap="round" stroke-linejoin="round"/>
<path d="M15 29L19 33" stroke="#5946D7" stroke-width="2" stroke-linecap="round" stroke-linejoin="round"/>
<path d="M43.0919 11.9802L38.8499 16.2222C38.0679 17.0042 36.8019 17.0042 36.0219 16.2222L31.7779 11.9802C30.9959 11.1982 30.9959 9.93216 31.7779 9.15216L36.0199 4.91016" stroke="#2E1066" stroke-width="2" stroke-linecap="round" stroke-linejoin="round"/>
<path d="M43.0919 11.9802L38.8499 16.2222C38.0679 17.0042 36.8019 17.0042 36.0219 16.2222L31.7779 11.9802C30.9959 11.1982 30.9959 9.93216 31.7779 9.15216L36.0199 4.91016" stroke="#410F9E" stroke-width="2" stroke-linecap="round" stroke-linejoin="round"/>
<path d="M43.0919 11.9802L38.8499 16.2222C38.0679 17.0042 36.8019 17.0042 36.0219 16.2222L31.7779 11.9802C30.9959 11.1982 30.9959 9.93216 31.7779 9.15216L36.0199 4.91016" stroke="#453888" stroke-width="2" stroke-linecap="round" stroke-linejoin="round"/>
<path d="M43.0919 11.9802L38.8499 16.2222C38.0679 17.0042 36.8019 17.0042 36.0219 16.2222L31.7779 11.9802C30.9959 11.1982 30.9959 9.93216 31.7779 9.15216L36.0199 4.91016" stroke="#5946D7" stroke-width="2" stroke-linecap="round" stroke-linejoin="round"/>
</g>
<defs>
<clipPath id="clip0_8_17049">
<rect width="48" height="48" fill="white"/>
</clipPath>
</defs>
</svg>
