<svg width="48" height="48" viewBox="0 0 48 48" fill="none" xmlns="http://www.w3.org/2000/svg">
<g clip-path="url(#clip0_8_14287)">
<path fill-rule="evenodd" clip-rule="evenodd" d="M28.0981 32.1536V32.1536C26.8287 32.3653 25.5305 32.0078 24.5485 31.1761C23.5664 30.3444 23 29.1227 23 27.8358V20.1646C23 18.8777 23.5664 17.656 24.5485 16.8243C25.5305 15.9926 26.8287 15.6351 28.0981 15.8468V15.8468C32.0839 16.511 35.0052 19.9595 35.005 24.0002V24.0002C35.0052 28.0409 32.0839 31.4894 28.0981 32.1536V32.1536Z" stroke="#2E1066" stroke-width="2" stroke-linecap="round" stroke-linejoin="round"/>
<path fill-rule="evenodd" clip-rule="evenodd" d="M28.0981 32.1536V32.1536C26.8287 32.3653 25.5305 32.0078 24.5485 31.1761C23.5664 30.3444 23 29.1227 23 27.8358V20.1646C23 18.8777 23.5664 17.656 24.5485 16.8243C25.5305 15.9926 26.8287 15.6351 28.0981 15.8468V15.8468C32.0839 16.511 35.0052 19.9595 35.005 24.0002V24.0002C35.0052 28.0409 32.0839 31.4894 28.0981 32.1536V32.1536Z" stroke="#410F9E" stroke-width="2" stroke-linecap="round" stroke-linejoin="round"/>
<path fill-rule="evenodd" clip-rule="evenodd" d="M28.0981 32.1536V32.1536C26.8287 32.3653 25.5305 32.0078 24.5485 31.1761C23.5664 30.3444 23 29.1227 23 27.8358V20.1646C23 18.8777 23.5664 17.656 24.5485 16.8243C25.5305 15.9926 26.8287 15.6351 28.0981 15.8468V15.8468C32.0839 16.511 35.0052 19.9595 35.005 24.0002V24.0002C35.0052 28.0409 32.0839 31.4894 28.0981 32.1536V32.1536Z" stroke="#453888" stroke-width="2" stroke-linecap="round" stroke-linejoin="round"/>
<path fill-rule="evenodd" clip-rule="evenodd" d="M28.0981 32.1536V32.1536C26.8287 32.3653 25.5305 32.0078 24.5485 31.1761C23.5664 30.3444 23 29.1227 23 27.8358V20.1646C23 18.8777 23.5664 17.656 24.5485 16.8243C25.5305 15.9926 26.8287 15.6351 28.0981 15.8468V15.8468C32.0839 16.511 35.0052 19.9595 35.005 24.0002V24.0002C35.0052 28.0409 32.0839 31.4894 28.0981 32.1536V32.1536Z" stroke="#5946D7" stroke-width="2" stroke-linecap="round" stroke-linejoin="round"/>
<path d="M13.9961 19.9987L17.9978 18.9983" stroke="#2E1066" stroke-width="2" stroke-linecap="round" stroke-linejoin="round"/>
<path d="M13.9961 19.9987L17.9978 18.9983" stroke="#410F9E" stroke-width="2" stroke-linecap="round" stroke-linejoin="round"/>
<path d="M13.9961 19.9987L17.9978 18.9983" stroke="#453888" stroke-width="2" stroke-linecap="round" stroke-linejoin="round"/>
<path d="M13.9961 19.9987L17.9978 18.9983" stroke="#5946D7" stroke-width="2" stroke-linecap="round" stroke-linejoin="round"/>
<path d="M13.9961 25.0006L17.9978 24.0002" stroke="#2E1066" stroke-width="2" stroke-linecap="round" stroke-linejoin="round"/>
<path d="M13.9961 25.0006L17.9978 24.0002" stroke="#410F9E" stroke-width="2" stroke-linecap="round" stroke-linejoin="round"/>
<path d="M13.9961 25.0006L17.9978 24.0002" stroke="#453888" stroke-width="2" stroke-linecap="round" stroke-linejoin="round"/>
<path d="M13.9961 25.0006L17.9978 24.0002" stroke="#5946D7" stroke-width="2" stroke-linecap="round" stroke-linejoin="round"/>
<path fill-rule="evenodd" clip-rule="evenodd" d="M24.0002 42.0082V42.0082C14.0549 42.0082 5.99268 33.9459 5.99268 24.0007V24.0007C5.99268 14.0554 14.0549 5.99316 24.0002 5.99316V5.99316C33.9454 5.99316 42.0077 14.0554 42.0077 24.0007V24.0007C42.0077 33.9459 33.9454 42.0082 24.0002 42.0082V42.0082Z" stroke="#2E1066" stroke-width="2" stroke-linecap="round" stroke-linejoin="round"/>
<path fill-rule="evenodd" clip-rule="evenodd" d="M24.0002 42.0082V42.0082C14.0549 42.0082 5.99268 33.9459 5.99268 24.0007V24.0007C5.99268 14.0554 14.0549 5.99316 24.0002 5.99316V5.99316C33.9454 5.99316 42.0077 14.0554 42.0077 24.0007V24.0007C42.0077 33.9459 33.9454 42.0082 24.0002 42.0082V42.0082Z" stroke="#410F9E" stroke-width="2" stroke-linecap="round" stroke-linejoin="round"/>
<path fill-rule="evenodd" clip-rule="evenodd" d="M24.0002 42.0082V42.0082C14.0549 42.0082 5.99268 33.9459 5.99268 24.0007V24.0007C5.99268 14.0554 14.0549 5.99316 24.0002 5.99316V5.99316C33.9454 5.99316 42.0077 14.0554 42.0077 24.0007V24.0007C42.0077 33.9459 33.9454 42.0082 24.0002 42.0082V42.0082Z" stroke="#453888" stroke-width="2" stroke-linecap="round" stroke-linejoin="round"/>
<path fill-rule="evenodd" clip-rule="evenodd" d="M24.0002 42.0082V42.0082C14.0549 42.0082 5.99268 33.9459 5.99268 24.0007V24.0007C5.99268 14.0554 14.0549 5.99316 24.0002 5.99316V5.99316C33.9454 5.99316 42.0077 14.0554 42.0077 24.0007V24.0007C42.0077 33.9459 33.9454 42.0082 24.0002 42.0082V42.0082Z" stroke="#5946D7" stroke-width="2" stroke-linecap="round" stroke-linejoin="round"/>
<path d="M13.9961 30.0026L17.9978 29.0022" stroke="#2E1066" stroke-width="2" stroke-linecap="round" stroke-linejoin="round"/>
<path d="M13.9961 30.0026L17.9978 29.0022" stroke="#410F9E" stroke-width="2" stroke-linecap="round" stroke-linejoin="round"/>
<path d="M13.9961 30.0026L17.9978 29.0022" stroke="#453888" stroke-width="2" stroke-linecap="round" stroke-linejoin="round"/>
<path d="M13.9961 30.0026L17.9978 29.0022" stroke="#5946D7" stroke-width="2" stroke-linecap="round" stroke-linejoin="round"/>
</g>
<defs>
<clipPath id="clip0_8_14287">
<rect width="48" height="48" fill="white"/>
</clipPath>
</defs>
</svg>
